<?xml version="1.0" encoding="UTF-8"?>
<svg version="1.1" xmlns="http://www.w3.org/2000/svg" width="1024" height="1024">
<path d="M0 0 C337.92 0 675.84 0 1024 0 C1024 337.92 1024 675.84 1024 1024 C686.08 1024 348.16 1024 0 1024 C0 686.08 0 348.16 0 0 Z " fill="#EDECE9" transform="translate(0,0)"/>
<path d="M0 0 C1.48548261 -0.0040794 2.97096217 -0.00942885 4.45643616 -0.01593018 C8.44698042 -0.02946158 12.43728868 -0.02436075 16.42783642 -0.01479292 C20.64722944 -0.00710483 24.86660457 -0.01426852 29.08599854 -0.01895142 C36.1802526 -0.02438987 43.27441261 -0.01727537 50.36865234 -0.00292969 C58.49541428 0.01331734 66.62194939 0.0081587 74.74870563 -0.0084089 C81.78803235 -0.02216999 88.82729205 -0.02387097 95.86662793 -0.0160929 C100.04294604 -0.01148574 104.21915891 -0.01059218 108.39546967 -0.02070236 C162.91714679 -0.13442203 213.82746726 9.20762779 254.49707031 48.38818359 C256.96422295 50.95091599 259.23097233 53.64707661 261.49707031 56.38818359 C262.13902344 57.13769287 262.13902344 57.13769287 262.79394531 57.90234375 C280.53321214 78.63267514 292.28352312 102.88016348 298.49707031 129.38818359 C298.81466309 130.72091309 298.81466309 130.72091309 299.13867188 132.08056641 C310.3262184 181.49370771 301.22869439 235.54598251 274.49707031 278.38818359 C271.97567337 282.17997669 269.30569719 285.80513921 266.49707031 289.38818359 C265.48580078 290.70496094 265.48580078 290.70496094 264.45410156 292.04833984 C237.50456233 326.16478751 198.72627471 346.36853271 155.86425781 351.85302734 C148.76715435 352.46542516 141.67379477 352.41963004 134.55566406 352.40380859 C133.58592651 352.40268066 132.61618896 352.40155273 131.61706543 352.40039062 C129.24372962 352.3974669 126.87040207 352.39336942 124.49707031 352.38818359 C124.49983569 353.0784067 124.50260107 353.7686298 124.50545025 354.47976875 C124.57172682 371.28074402 124.62135902 388.08167784 124.65250683 404.88275337 C124.66797036 413.0076581 124.68905002 421.13247553 124.72338867 429.25732422 C124.75330681 436.33961797 124.77264906 443.42184849 124.7793358 450.50420368 C124.78324398 454.25366665 124.79241792 458.00294872 124.81426048 461.75235367 C124.83845665 465.93980151 124.83903875 470.12693559 124.83764648 474.31445312 C124.84843231 475.55523117 124.85921814 476.79600922 124.87033081 478.0743866 C124.84630001 484.74148046 124.73889204 489.91539237 119.96191406 495.03271484 C115.91307737 498.12888408 113.85981885 499.5073267 108.80712891 499.56518555 C107.8320639 499.57802078 106.8569989 499.59085602 105.85238647 499.6040802 C104.26498154 499.6151606 104.26498154 499.6151606 102.64550781 499.62646484 C101.55750885 499.63453659 100.46950989 499.64260834 99.34854126 499.65092468 C97.04015704 499.6647761 94.73175225 499.6754935 92.42333984 499.68334961 C88.90715107 499.70051236 85.39191463 499.74438429 81.87597656 499.78857422 C79.63249389 499.79870546 77.38900322 499.80722021 75.14550781 499.81396484 C73.57632095 499.84022697 73.57632095 499.84022697 71.97543335 499.86701965 C65.95535762 499.84930081 60.1797916 499.5637511 55.49707031 495.38818359 C52.14773696 490.33904921 50.99687875 487.12597875 50.99586487 480.93878174 C50.98756327 479.86339429 50.98756327 479.86339429 50.97909397 478.76628184 C50.96555857 476.3810997 50.9804171 473.99697701 50.99536133 471.61181641 C50.99157541 469.89465899 50.98607312 468.17750464 50.97898865 466.46035767 C50.96504813 461.8071591 50.97619584 457.15433092 50.99269986 452.50115299 C51.00657917 447.62159517 51.00008666 442.74205824 50.99656677 437.86248779 C50.9938659 429.66461239 51.00732616 421.4668835 51.03051758 413.26904297 C51.05709101 403.81065418 51.05888521 394.35251086 51.04712921 384.89409757 C51.03632099 375.77713225 51.04256464 366.66025515 51.05668449 357.54329681 C51.06242151 353.67275643 51.06237957 349.80228108 51.05761909 345.93173981 C51.05282012 341.36471052 51.06307107 336.79794725 51.08457375 332.23096848 C51.09010353 330.56175763 51.09064226 328.89252102 51.08562088 327.22330856 C51.04915453 313.35382202 52.29929862 298.86922672 62.49707031 288.38818359 C71.32770476 281.74105395 79.3717615 281.09321491 90.15722656 281.04443359 C91.37929306 281.02981079 92.60135956 281.01518799 93.86045837 281.00012207 C97.76012915 280.95376123 101.65975163 280.91951518 105.55957031 280.88818359 C110.67563388 280.84668561 115.79136099 280.79281454 120.90722656 280.73193359 C122.05981461 280.72665649 123.21240265 280.72137939 124.3999176 280.71594238 C152.73194343 280.3758585 177.77862367 270.70741878 198.36816406 251.20849609 C200.49707031 249.38818359 200.49707031 249.38818359 203.49707031 248.38818359 C204.20011456 247.07366809 204.8594171 245.73563326 205.49707031 244.38818359 C206.85437327 242.64509121 208.23196485 240.91773023 209.62207031 239.20068359 C226.70058169 217.03746513 231.19726041 187.76906671 228.18066406 160.53125 C227.35857001 155.36223384 226.08134814 150.3727356 224.49707031 145.38818359 C224.13484375 144.23705078 223.77261719 143.08591797 223.39941406 141.89990234 C218.54262626 128.15272332 210.76671424 115.34415137 200.23144531 105.20849609 C198.49707031 103.38818359 198.49707031 103.38818359 198.49707031 101.38818359 C197.94535156 101.14326172 197.39363281 100.89833984 196.82519531 100.64599609 C194.02234562 99.13170482 191.73317265 97.25623212 189.24707031 95.26318359 C171.49266968 81.57918185 149.66848632 75.86055586 127.55322266 74.81445312 C126.73171408 74.77375261 125.9102055 74.7330521 125.06380272 74.69111824 C116.61628992 74.30140345 108.17858135 74.24342613 99.72363281 74.25537109 C98.0780637 74.25418195 96.43249479 74.25265716 94.78692627 74.25082397 C89.56528993 74.24712912 84.34369858 74.25460706 79.12207031 74.26318359 C77.32798263 74.26545702 75.5338949 74.26769482 73.73980713 74.26989746 C62.42097426 74.28548793 51.10230705 74.3216683 39.78359985 74.37702942 C38.30807615 74.38422734 36.83255128 74.39119229 35.35702515 74.39787292 C27.96532807 74.43137238 20.57471083 74.48417178 13.18377686 74.59771729 C11.3268025 74.62444301 9.46972554 74.6448697 7.61260986 74.65863037 C5.11238823 74.67943242 2.61395637 74.72502536 0.11425781 74.77880859 C-0.93468658 74.78066666 -0.93468658 74.78066666 -2.00482178 74.78256226 C-6.91450147 74.93249895 -9.79662983 76.19381098 -13.50292969 79.38818359 C-16.30112288 83.93172629 -16.93450973 87.74093428 -16.88324642 92.97018051 C-16.88790634 93.71699203 -16.89256626 94.46380356 -16.89736739 95.23324573 C-16.90932636 97.7378498 -16.89991862 100.24191231 -16.89060974 102.746521 C-16.89478228 104.55948792 -16.90025936 106.37245224 -16.90692955 108.18541169 C-16.92141368 113.16929384 -16.91713013 118.15301104 -16.90976274 123.13690233 C-16.90504063 128.51128738 -16.91753254 133.88563624 -16.92778015 139.26000977 C-16.94499316 149.79032669 -16.94580285 160.32058401 -16.94056725 170.85091135 C-16.93652843 179.40999534 -16.93796569 187.96906169 -16.94331551 196.52814484 C-16.94406393 197.74560361 -16.94481235 198.96306239 -16.94558345 200.21741386 C-16.94711491 202.69058735 -16.94865326 205.16376083 -16.95019842 207.63693431 C-16.96393289 230.84098132 -16.95847946 254.04499463 -16.94701321 277.24904087 C-16.93708317 298.4780102 -16.95001588 319.70689233 -16.9739474 340.93584821 C-16.99833051 362.72951468 -17.007948 384.52314054 -17.00129467 406.31682038 C-16.99780028 418.55392888 -17.00004892 430.79097035 -17.0175457 443.02806854 C-17.03225794 453.44707024 -17.03291602 463.86595771 -17.01547479 474.28495714 C-17.0069538 479.60060869 -17.00484212 484.9160561 -17.02012634 490.23169708 C-17.0339508 495.09996066 -17.02923894 499.9678448 -17.00988711 504.8360863 C-17.00611987 506.59515691 -17.00906988 508.35425776 -17.01949876 510.11330149 C-17.3804361 524.56216003 -17.3804361 524.56216003 -10.98486799 537.05301261 C-6.2757368 541.14888612 -2.94129681 541.53433382 3.06098366 541.52240467 C3.85443021 541.5247569 4.64787675 541.52710913 5.46536714 541.52953264 C8.15251286 541.5362461 10.83961049 541.53576371 13.52676392 541.53535461 C15.46144541 541.53865179 17.39612622 541.54237704 19.33080614 541.54649609 C24.66958325 541.55654102 30.00834912 541.56023689 35.34713435 541.5628854 C41.09645872 541.56678112 46.84577411 541.57635999 52.59509277 541.58509827 C66.49134038 541.60488409 80.38758874 541.61493186 94.28384691 541.62382606 C100.82285171 541.62820575 107.36185569 541.6335734 113.90085983 541.63881493 C135.62990733 541.6558298 157.35895389 541.67034956 179.08800697 541.67756367 C180.49375904 541.67803843 181.89951111 541.67851432 183.30526318 541.67899133 C184.00239975 541.67922771 184.69953631 541.67946408 185.41779822 541.67970762 C188.94991887 541.68090884 192.48203952 541.68212428 196.01416016 541.68334961 C196.71512438 541.68358976 197.4160886 541.68382991 198.13829416 541.68407734 C220.86488525 541.69197014 243.59142415 541.7154005 266.31799245 541.74790555 C290.33873527 541.78219896 314.35944623 541.80191325 338.3802141 541.80520791 C351.47693477 541.80737547 364.57357875 541.81616 377.67027664 541.84166908 C388.82283916 541.86334084 399.97530638 541.8714439 411.12788756 541.8617023 C416.81996603 541.85714731 422.51184771 541.8591135 428.20389938 541.87846375 C433.4139082 541.89602257 438.62357562 541.89515693 443.83358769 541.87956645 C445.71926082 541.87717928 447.60495713 541.88157106 449.4905947 541.8933951 C452.0535153 541.90847169 454.6152196 541.89887136 457.17811012 541.88316822 C457.91056468 541.89339043 458.64301923 541.90361263 459.39766937 541.91414461 C466.72995293 541.81606499 473.32303707 538.56221683 478.49707031 533.38818359 C484.65329834 524.76025305 486.80719292 516.81888345 486.75535583 506.36917114 C486.76086939 505.05868122 486.76086939 505.05868122 486.76649433 503.72171676 C486.77642469 500.81246423 486.77233344 497.90340471 486.76831055 494.99414062 C486.77270045 492.90083616 486.77800356 490.80753344 486.78414917 488.7142334 C486.79562955 484.21483416 486.80110715 479.71548191 486.80203056 475.21606827 C486.80397486 468.09679145 486.82204777 460.97761148 486.8427887 453.85836792 C486.8919271 436.17586934 486.92285356 418.49334451 486.9440918 400.81079102 C486.96062505 387.06606711 486.98346533 373.32142644 487.02711254 359.57675827 C487.04885813 352.50448757 487.05694962 345.43237514 487.05471981 338.36007333 C487.05639009 333.95427637 487.07046037 329.54858221 487.08793259 325.14282227 C487.09351741 323.10552597 487.0940309 321.06820822 487.08899498 319.03091049 C487.03770334 295.84340645 487.03770334 295.84340645 492.68457031 287.95068359 C498.71937246 282.4523083 505.38192317 281.927715 513.18457031 281.95458984 C514.08651123 281.94934799 514.98845215 281.94410614 515.91772461 281.93870544 C517.81362891 281.93231782 519.70957301 281.93357969 521.60546875 281.94213867 C524.4893302 281.95066072 527.37121582 281.92182267 530.25488281 281.89013672 C532.10644473 281.88852459 533.95801011 281.88910246 535.80957031 281.89208984 C536.66188232 281.88085587 537.51419434 281.86962189 538.39233398 281.85804749 C545.41792641 281.93896968 550.84433404 283.73544732 555.87207031 288.76318359 C559.4900859 294.60767032 559.78584545 299.95033284 559.7510376 306.61984253 C559.75415758 307.54064641 559.75727756 308.46145029 559.76049209 309.41015732 C559.76845998 312.49127705 559.76215287 315.57219917 559.75585938 318.65332031 C559.75856996 320.86467097 559.76213127 323.07602073 559.76647949 325.28736877 C559.77560306 331.29411704 559.77205792 337.30079666 559.76572132 343.30754614 C559.76065486 349.6034803 559.76535517 355.89940862 559.76849365 362.19534302 C559.77236731 373.45722626 559.76614809 384.71908128 559.75597498 395.98095788 C559.74706148 406.16261373 559.74857345 416.3442239 559.7578125 426.52587891 C559.76855462 438.36936099 559.7724772 450.21282097 559.76658797 462.05630887 C559.7634819 468.3176903 559.76302071 474.57904039 559.76966095 480.84041977 C559.77547856 486.73867576 559.77135738 492.63684644 559.75987244 498.53509331 C559.7572481 500.6892031 559.75795239 502.84332018 559.76239777 504.99742699 C559.81971417 535.61760827 559.81971417 535.61760827 554.93457031 549.38818359 C554.67844971 550.12818604 554.4223291 550.86818848 554.15844727 551.63061523 C549.67788642 563.95904972 542.83288653 576.07210483 533.49707031 585.38818359 C532.83707031 585.38818359 532.17707031 585.38818359 531.49707031 585.38818359 C531.284375 585.95021484 531.07167969 586.51224609 530.85253906 587.09130859 C529.04804579 590.14906665 526.59940514 592.03066548 523.80957031 594.13818359 C523.23505127 594.57283936 522.66053223 595.00749512 522.06860352 595.45532227 C503.7591966 608.93414128 481.7219949 615.57452522 459.04731655 615.51961136 C458.24312474 615.52166399 457.43893294 615.52371663 456.61037168 615.52583146 C453.92874424 615.53146397 451.24716877 615.53004888 448.5655365 615.52862549 C446.61814092 615.53121127 444.67074586 615.53422503 442.72335154 615.53762889 C437.38162843 615.545677 432.03991878 615.54748724 426.69819033 615.54822636 C420.93315881 615.55008072 415.1681342 615.55762995 409.40310669 615.56436157 C396.8017285 615.57792959 384.2003535 615.58396715 371.59896922 615.58837223 C363.72734621 615.59113709 355.85572443 615.59537487 347.98410225 615.5998764 C326.18015457 615.61206678 304.37620804 615.62240209 282.57225704 615.6257515 C281.16332872 615.62597312 279.75440039 615.62619491 278.34547207 615.62641685 C276.9332194 615.62663748 275.52096672 615.62685797 274.10871404 615.62707829 C271.27568241 615.62752084 268.44265077 615.62796796 265.60961914 615.62841797 C264.90719667 615.62852736 264.2047742 615.62863675 263.48106619 615.62874946 C240.71167956 615.63237904 217.94232479 615.64829689 195.17295036 615.67160833 C171.07831212 615.69623133 146.9836922 615.70991876 122.88904101 615.71111941 C109.76312138 615.7120353 96.63724349 615.71776604 83.51133537 615.73593903 C72.33392902 615.75136005 61.1565773 615.75644862 49.97916233 615.74820092 C44.28000153 615.74430162 38.58095069 615.74518892 32.88180351 615.75925827 C27.65628379 615.77204004 22.43095616 615.77076223 17.20543654 615.75866756 C15.3231973 615.75671797 13.44094426 615.75975455 11.5587244 615.76851192 C-3.06558913 615.83220212 -17.14694131 614.80590962 -30.81542969 609.07568359 C-31.56759766 608.77009521 -32.31976563 608.46450684 -33.09472656 608.1496582 C-43.41971324 603.87162471 -51.9703882 598.6114213 -60.50292969 591.38818359 C-61.10621094 590.93056641 -61.70949219 590.47294922 -62.33105469 590.00146484 C-79.26310854 576.82769397 -89.75872732 553.20737136 -92.50292969 532.38818359 C-92.70162392 528.35054705 -92.75664816 524.31273767 -92.81343079 520.2709198 C-92.83379705 519.03697829 -92.85416332 517.80303679 -92.87514675 516.53170311 C-92.92948137 513.10444753 -92.97902117 509.67719951 -93.02529214 506.24983014 C-93.05524753 504.04535666 -93.08665488 501.84090748 -93.11830962 499.6364578 C-93.6715756 460.62286694 -93.66766418 421.60731384 -93.67018676 382.59056878 C-93.67069 376.41952653 -93.67300129 370.24848572 -93.67568398 364.07744408 C-93.68440932 343.58141632 -93.68911343 323.08539366 -93.6883535 302.58936403 C-93.68831355 301.49937829 -93.68827359 300.40939256 -93.68823242 299.28637695 C-93.68819154 298.19501952 -93.68815066 297.10366209 -93.68810854 295.97923323 C-93.68769887 278.14991308 -93.69736951 260.32061372 -93.71137079 242.49129961 C-93.72574507 224.03825728 -93.73264117 205.58522512 -93.73177701 187.13217705 C-93.7314466 176.82852453 -93.73412819 166.52489413 -93.74495506 156.22124672 C-93.75407141 147.4936448 -93.756224 138.76607518 -93.74944564 130.03847054 C-93.74619329 125.59864085 -93.74607846 121.15887315 -93.75479889 116.71904945 C-93.76271571 112.64683336 -93.76118051 108.57472795 -93.75251476 104.50251438 C-93.75099175 103.0405807 -93.75274988 101.57863853 -93.75837483 100.11671487 C-93.80524209 87.05929047 -93.28094675 73.60061323 -88.81542969 61.20068359 C-88.55415283 60.45294678 -88.29287598 59.70520996 -88.02368164 58.93481445 C-83.80415045 47.27463109 -77.80693218 37.58287942 -69.50292969 28.38818359 C-68.74238281 27.53353516 -67.98183594 26.67888672 -67.19824219 25.79833984 C-49.34749772 6.80631827 -25.50161301 -0.11995468 0 0 Z " fill="#090C0B" transform="translate(285.5029296875,205.61181640625)"/>
<path d="M0 0 C0.68819124 -0.00438225 1.37638248 -0.00876451 2.085428 -0.01327956 C4.37895609 -0.02657618 6.67244584 -0.03282562 8.96600342 -0.03897095 C10.61566843 -0.04687897 12.26533175 -0.05514835 13.91499329 -0.06375122 C19.32097745 -0.08988477 24.72696904 -0.10526766 30.13299561 -0.11953735 C31.99816644 -0.12490012 33.86333724 -0.13027764 35.728508 -0.13566971 C43.48870804 -0.15728345 51.24890608 -0.1760192 59.00912857 -0.1872921 C70.11077011 -0.20352858 81.2120616 -0.23671638 92.31357121 -0.29369295 C100.13119355 -0.33244158 107.94872243 -0.35193046 115.76643825 -0.35721266 C120.43040188 -0.36085862 125.09399139 -0.37279993 129.75785065 -0.4053154 C134.14764286 -0.43548387 138.53683624 -0.44167681 142.92671013 -0.42993164 C144.53186976 -0.42971166 146.13705793 -0.43795424 147.74212074 -0.45558548 C157.631024 -0.55824454 166.23141389 -0.11618947 173.8280983 6.90943336 C179.87346653 13.26975894 181.37687217 19.85917518 181.36224365 28.35287476 C181.37241831 29.25398043 181.38259296 30.1550861 181.39307594 31.083498 C181.42324915 34.07447549 181.43246831 37.06513396 181.44158936 40.0562439 C181.45876451 42.18340569 181.47719914 44.31055764 181.49681091 46.43769836 C181.54542684 52.14202506 181.57544801 57.84630071 181.60063934 63.55077362 C181.62293474 68.26886814 181.65373026 72.98689146 181.68452072 77.70493698 C181.74646477 87.19876656 181.79983249 96.69259093 181.84231949 106.18652725 C181.8936868 117.60682897 181.97950332 129.02600603 182.10481262 140.44572449 C182.16881431 146.32946008 182.21486587 152.21327334 182.25329113 158.09722805 C182.27874183 161.91884557 182.31191826 165.73999861 182.36502075 169.56134033 C182.42239991 173.7355555 182.43983279 177.90900091 182.45330811 182.08358765 C182.47592209 183.27677109 182.49853607 184.46995453 182.52183533 185.69929504 C182.50309897 193.13391441 181.35580603 199.0323956 176.92987061 205.15390015 C167.14615162 213.80518695 156.3219509 213.43252495 143.94207764 213.32089233 C142.32167915 213.31373168 140.7012766 213.30744292 139.08087158 213.30195618 C134.69642538 213.28439054 130.31215672 213.25395233 125.92780542 213.22062206 C121.32809565 213.18730601 116.72833264 213.16410976 112.12857056 213.13931274 C104.40326044 213.09600144 96.6780421 213.04414715 88.95281982 212.98739624 C80.03925421 212.9220377 71.12569217 212.87098465 62.21199524 212.82745433 C53.61771535 212.78508197 45.02353533 212.73173172 36.42934799 212.67371368 C32.78129972 212.64932325 29.13326139 212.6288745 25.48517227 212.61168671 C21.18243337 212.5909742 16.87986395 212.56064228 12.57723999 212.52310371 C11.00437506 212.51090646 9.43148086 212.50195244 7.85857773 212.49660301 C-15.73757525 212.41034186 -15.73757525 212.41034186 -23.69512939 204.5484314 C-28.77512533 199.0166089 -30.3209079 193.9744198 -30.31736755 186.42112732 C-30.31978197 185.76913233 -30.32219638 185.11713734 -30.32468396 184.44538492 C-30.33029184 182.27398211 -30.32167974 180.10287735 -30.31304932 177.93148804 C-30.31412302 176.36875326 -30.31606302 174.80601888 -30.31880188 173.24328613 C-30.32364285 169.00512669 -30.31600085 164.76707282 -30.30584884 160.52892613 C-30.29704096 156.07965424 -30.29882641 151.6303854 -30.29920959 147.18110657 C-30.29827321 139.70025885 -30.28959803 132.21945169 -30.27593994 124.73861694 C-30.26026646 116.12279104 -30.25494012 107.5070097 -30.25567549 98.89117056 C-30.25635475 89.68619974 -30.24938674 80.48124584 -30.24022889 71.27628016 C-30.23811045 68.64185378 -30.23738944 66.00743017 -30.23698997 63.37300301 C-30.23597431 59.20578166 -30.22977961 55.03859674 -30.21982384 50.87138748 C-30.21693865 49.35381863 -30.21566522 47.83624557 -30.21625137 46.31867409 C-30.22385612 14.60142602 -30.22385612 14.60142602 -23.42559814 7.4156189 C-16.44520301 1.04353706 -9.26912335 0.04206926 0 0 Z " fill="#F26418" transform="translate(662.0701293945313,206.84609985351563)"/>
<path d="M0 0 C1 3 1 3 0 6 C-0.09902452 8.39719204 -0.14221829 10.76537581 -0.1386652 13.1626997 C-0.14292853 14.26955583 -0.14292853 14.26955583 -0.14727798 15.39877269 C-0.15565203 17.89087482 -0.15689531 20.38293063 -0.15821838 22.87504578 C-0.16278189 24.67192423 -0.1677816 26.46880162 -0.17318195 28.26567775 C-0.18679653 33.21858198 -0.194191 38.17147932 -0.20060861 43.1243974 C-0.208598 48.45978107 -0.22230079 53.79515034 -0.23532104 59.13052368 C-0.25710457 68.37948342 -0.27524219 77.6284446 -0.29092598 86.87741661 C-0.31360754 100.24999251 -0.34175273 113.62255249 -0.37124526 126.9951149 C-0.41894221 148.68952596 -0.46220068 170.38394352 -0.50268555 192.07836914 C-0.54202978 213.15649929 -0.58345343 234.23462366 -0.62768555 255.31274414 C-0.63040982 256.61129905 -0.63313409 257.90985395 -0.63594092 259.24775901 C-0.64962022 265.76201817 -0.66334053 272.27627725 -0.67708123 278.79053628 C-0.79107903 332.86034547 -0.89788107 386.93016717 -1 441 C-1.99 441 -2.98 441 -4 441 C-4.09152346 385.97455101 -4.16202243 330.94910971 -4.20426132 275.9235996 C-4.20926424 269.42969779 -4.21444152 262.93579612 -4.21972656 256.44189453 C-4.2207758 255.14905682 -4.22182505 253.85621911 -4.22290608 252.52420449 C-4.24031891 231.58127327 -4.27186145 210.6383859 -4.30861118 189.6954807 C-4.34599615 168.21164905 -4.36823068 146.72784039 -4.37635398 125.24397755 C-4.38184681 111.98359962 -4.3992055 98.72334563 -4.43166587 85.46300584 C-4.45278355 76.37415388 -4.45920626 67.28536614 -4.45400551 58.19649142 C-4.45143947 52.94997494 -4.45541734 47.70367527 -4.4768219 42.45719719 C-4.49627428 37.65419893 -4.49727844 32.85156347 -4.48359558 28.04854858 C-4.48190425 26.31085997 -4.48698952 24.57314881 -4.49953273 22.83550465 C-4.60846472 6.81343884 -4.60846472 6.81343884 0 0 Z " fill="#3E403E" transform="translate(269,285)"/>
<path d="M0 0 C0.33 0 0.66 0 1 0 C1.07654536 4.51617599 1.10228696 8.59085217 0 13 C-0.99 13 -1.98 13 -3 13 C-2.69240822 11.02006459 -2.3787932 9.04106401 -2.0625 7.0625 C-1.88847656 5.96035156 -1.71445313 4.85820312 -1.53515625 3.72265625 C-1 1 -1 1 0 0 Z " fill="#131514" transform="translate(196,271)"/>
<path d="M0 0 C0.33 0.66 0.66 1.32 1 2 C-0.83539018 7.3022383 -3.2549137 10.8500395 -7 15 C-7.33 14.34 -7.66 13.68 -8 13 C-6.75506252 10.71025684 -5.47358472 8.55809966 -4.0625 6.375 C-3.67642578 5.76398438 -3.29035156 5.15296875 -2.89257812 4.5234375 C-1.93553674 3.0110758 -0.96867189 1.50493883 0 0 Z " fill="#F5F5F3" transform="translate(567,471)"/>
<path d="M0 0 C0.33 0.66 0.66 1.32 1 2 C0.34 2.61875 -0.32 3.2375 -1 3.875 C-3.2284549 5.75637427 -3.2284549 5.75637427 -3 8 C-3.99 8.33 -4.98 8.66 -6 9 C-7.22520264 12.00847418 -7.22520264 12.00847418 -8 15 C-8.33 15 -8.66 15 -9 15 C-8.74086272 8.65113652 -6.61254026 5.3311386 -2 1 C-1.34 0.67 -0.68 0.34 0 0 Z " fill="#F35110" transform="translate(643,211)"/>
<path d="M0 0 C2.66666667 1.33333333 5.33333333 2.66666667 8 4 C8 4.99 8 5.98 8 7 C8.99 7.33 9.98 7.66 11 8 C10.34 8.66 9.68 9.32 9 10 C8.51789062 9.50628906 8.03578125 9.01257813 7.5390625 8.50390625 C6.90742187 7.86324219 6.27578125 7.22257813 5.625 6.5625 C4.99851562 5.92441406 4.37203125 5.28632813 3.7265625 4.62890625 C2.08276939 2.92117824 2.08276939 2.92117824 0 2 C0 1.34 0 0.68 0 0 Z " fill="#E1E1DF" transform="translate(528,243)"/>
<path d="M0 0 C0 4.38968456 -2.12805101 5.76905739 -5 9 C-5.66 8.34 -6.32 7.68 -7 7 C-4.69 4.69 -2.38 2.38 0 0 Z M-9 8 C-8.34 8.33 -7.68 8.66 -7 9 C-7.99 9 -8.98 9 -10 9 C-9.67 8.67 -9.34 8.34 -9 8 Z " fill="#1B1C1C" transform="translate(486,455)"/>
<path d="M0 0 C0.66 0.33 1.32 0.66 2 1 C2.39253254 5.44870215 1.15305957 8.14243493 -1 12 C-2.09898702 8.70303895 -1.87124444 7.59505097 -1.0625 4.3125 C-0.86785156 3.50425781 -0.67320312 2.69601562 -0.47265625 1.86328125 C-0.31667969 1.24839844 -0.16070312 0.63351562 0 0 Z " fill="#131414" transform="translate(339,509)"/>
<path d="M0 0 C-2.35953094 2.35953094 -3.77895617 2.49141413 -7 3 C-7 2.01 -7 1.02 -7 0 C-4.3333581 -1.33332095 -2.83319697 -0.67102033 0 0 Z " fill="#E4E4E2" transform="translate(450,479)"/>
</svg>
